<svg width="14" height="14" viewBox="0 0 14 14" fill="none" xmlns="http://www.w3.org/2000/svg">
<path d="M13.5625 1V10.75C13.5625 10.8992 13.5032 11.0423 13.3978 11.1477C13.2923 11.2532 13.1492 11.3125 13 11.3125C12.8508 11.3125 12.7077 11.2532 12.6023 11.1477C12.4968 11.0423 12.4375 10.8992 12.4375 10.75V2.3575L1.39751 13.3975C1.29088 13.4969 1.14984 13.551 1.00412 13.5484C0.858389 13.5458 0.71935 13.4868 0.61629 13.3837C0.513231 13.2807 0.454197 13.1416 0.451626 12.9959C0.449055 12.8502 0.503147 12.7091 0.602507 12.6025L11.6425 1.5625H3.25001C3.10082 1.5625 2.95775 1.50324 2.85226 1.39775C2.74677 1.29226 2.68751 1.14918 2.68751 1C2.68751 0.850816 2.74677 0.707742 2.85226 0.602252C2.95775 0.496763 3.10082 0.4375 3.25001 0.4375H13C13.1492 0.4375 13.2923 0.496763 13.3978 0.602252C13.5032 0.707742 13.5625 0.850816 13.5625 1Z" fill="black"/>
</svg>
