<svg width="20" height="20" viewBox="0 0 20 20" fill="none" xmlns="http://www.w3.org/2000/svg">
<path d="M16.25 2.65625H14.2188V1.875C14.2188 1.75068 14.1694 1.63145 14.0815 1.54354C13.9935 1.45564 13.8743 1.40625 13.75 1.40625C13.6257 1.40625 13.5065 1.45564 13.4185 1.54354C13.3306 1.63145 13.2812 1.75068 13.2812 1.875V2.65625H6.71875V1.875C6.71875 1.75068 6.66936 1.63145 6.58146 1.54354C6.49355 1.45564 6.37432 1.40625 6.25 1.40625C6.12568 1.40625 6.00645 1.45564 5.91854 1.54354C5.83064 1.63145 5.78125 1.75068 5.78125 1.875V2.65625H3.75C3.45992 2.65625 3.18172 2.77148 2.9766 2.9766C2.77148 3.18172 2.65625 3.45992 2.65625 3.75V16.25C2.65625 16.5401 2.77148 16.8183 2.9766 17.0234C3.18172 17.2285 3.45992 17.3438 3.75 17.3438H16.25C16.5401 17.3438 16.8183 17.2285 17.0234 17.0234C17.2285 16.8183 17.3438 16.5401 17.3438 16.25V3.75C17.3438 3.45992 17.2285 3.18172 17.0234 2.9766C16.8183 2.77148 16.5401 2.65625 16.25 2.65625ZM3.75 3.59375H5.78125V4.375C5.78125 4.49932 5.83064 4.61855 5.91854 4.70646C6.00645 4.79436 6.12568 4.84375 6.25 4.84375C6.37432 4.84375 6.49355 4.79436 6.58146 4.70646C6.66936 4.61855 6.71875 4.49932 6.71875 4.375V3.59375H13.2812V4.375C13.2812 4.49932 13.3306 4.61855 13.4185 4.70646C13.5065 4.79436 13.6257 4.84375 13.75 4.84375C13.8743 4.84375 13.9935 4.79436 14.0815 4.70646C14.1694 4.61855 14.2188 4.49932 14.2188 4.375V3.59375H16.25C16.2914 3.59375 16.3312 3.61021 16.3605 3.63951C16.3898 3.66882 16.4062 3.70856 16.4062 3.75V6.40625H3.59375V3.75C3.59375 3.70856 3.61021 3.66882 3.63951 3.63951C3.66882 3.61021 3.70856 3.59375 3.75 3.59375ZM16.25 16.4062H3.75C3.70856 16.4062 3.66882 16.3898 3.63951 16.3605C3.61021 16.3312 3.59375 16.2914 3.59375 16.25V7.34375H16.4062V16.25C16.4062 16.2914 16.3898 16.3312 16.3605 16.3605C16.3312 16.3898 16.2914 16.4062 16.25 16.4062ZM10.7812 10.3125C10.7812 10.467 10.7354 10.6181 10.6496 10.7465C10.5637 10.875 10.4417 10.9752 10.299 11.0343C10.1562 11.0934 9.99913 11.1089 9.84759 11.0787C9.69604 11.0486 9.55683 10.9742 9.44757 10.8649C9.33831 10.7557 9.26391 10.6165 9.23376 10.4649C9.20362 10.3134 9.21909 10.1563 9.27822 10.0135C9.33735 9.87077 9.43748 9.74876 9.56596 9.66291C9.69444 9.57707 9.84548 9.53125 10 9.53125C10.2072 9.53125 10.4059 9.61356 10.5524 9.76007C10.6989 9.90659 10.7812 10.1053 10.7812 10.3125ZM14.2188 10.3125C14.2188 10.467 14.1729 10.6181 14.0871 10.7465C14.0012 10.875 13.8792 10.9752 13.7365 11.0343C13.5937 11.0934 13.4366 11.1089 13.2851 11.0787C13.1335 11.0486 12.9943 10.9742 12.8851 10.8649C12.7758 10.7557 12.7014 10.6165 12.6713 10.4649C12.6411 10.3134 12.6566 10.1563 12.7157 10.0135C12.7748 9.87077 12.875 9.74876 13.0035 9.66291C13.1319 9.57707 13.283 9.53125 13.4375 9.53125C13.6447 9.53125 13.8434 9.61356 13.9899 9.76007C14.1364 9.90659 14.2188 10.1053 14.2188 10.3125ZM7.34375 13.4375C7.34375 13.592 7.29793 13.7431 7.21209 13.8715C7.12624 14 7.00423 14.1002 6.86147 14.1593C6.71872 14.2184 6.56163 14.2339 6.41009 14.2037C6.25854 14.1736 6.11933 14.0992 6.01007 13.9899C5.90081 13.8807 5.82641 13.7415 5.79626 13.5899C5.76612 13.4384 5.78159 13.2813 5.84072 13.1385C5.89985 12.9958 5.99998 12.8738 6.12846 12.7879C6.25694 12.7021 6.40798 12.6562 6.5625 12.6562C6.7697 12.6562 6.96841 12.7386 7.11493 12.8851C7.26144 13.0316 7.34375 13.2303 7.34375 13.4375ZM10.7812 13.4375C10.7812 13.592 10.7354 13.7431 10.6496 13.8715C10.5637 14 10.4417 14.1002 10.299 14.1593C10.1562 14.2184 9.99913 14.2339 9.84759 14.2037C9.69604 14.1736 9.55683 14.0992 9.44757 13.9899C9.33831 13.8807 9.26391 13.7415 9.23376 13.5899C9.20362 13.4384 9.21909 13.2813 9.27822 13.1385C9.33735 12.9958 9.43748 12.8738 9.56596 12.7879C9.69444 12.7021 9.84548 12.6562 10 12.6562C10.2072 12.6562 10.4059 12.7386 10.5524 12.8851C10.6989 13.0316 10.7812 13.2303 10.7812 13.4375ZM14.2188 13.4375C14.2188 13.592 14.1729 13.7431 14.0871 13.8715C14.0012 14 13.8792 14.1002 13.7365 14.1593C13.5937 14.2184 13.4366 14.2339 13.2851 14.2037C13.1335 14.1736 12.9943 14.0992 12.8851 13.9899C12.7758 13.8807 12.7014 13.7415 12.6713 13.5899C12.6411 13.4384 12.6566 13.2813 12.7157 13.1385C12.7748 12.9958 12.875 12.8738 13.0035 12.7879C13.1319 12.7021 13.283 12.6562 13.4375 12.6562C13.6447 12.6562 13.8434 12.7386 13.9899 12.8851C14.1364 13.0316 14.2188 13.2303 14.2188 13.4375Z" fill="white"/>
</svg>
