<svg width="51" height="51" viewBox="0 0 51 51" fill="none" xmlns="http://www.w3.org/2000/svg">
<path d="M20.3773 24.3352C19.4544 23.6628 18.3419 23.3005 17.2 23.3005C16.0581 23.3005 14.9456 23.6628 14.0227 24.3352C13.7855 24.5429 13.6395 24.8356 13.6163 25.15C13.5931 25.4645 13.6946 25.7754 13.8989 26.0156C14.1031 26.2558 14.3937 26.4059 14.7078 26.4336C15.0218 26.4613 15.3342 26.3642 15.5773 26.1634C16.0598 25.8483 16.6237 25.6805 17.2 25.6805C17.7763 25.6805 18.3402 25.8483 18.8227 26.1634C18.9424 26.2681 19.0817 26.348 19.2325 26.3985C19.3833 26.4489 19.5426 26.4689 19.7012 26.4572C19.8598 26.4455 20.0145 26.4024 20.1563 26.3304C20.2981 26.2584 20.4242 26.1589 20.5272 26.0378C20.6302 25.9166 20.7081 25.7762 20.7564 25.6247C20.8047 25.4732 20.8224 25.3136 20.8084 25.1551C20.7945 24.9967 20.7492 24.8427 20.6751 24.7019C20.6011 24.5612 20.4999 24.4365 20.3773 24.3352Z" fill="white"/>
<path d="M33.2 21.2496C32.488 21.2496 31.7919 21.4608 31.1999 21.8563C30.6079 22.2519 30.1465 22.8142 29.874 23.472C29.6015 24.1298 29.5302 24.8536 29.6692 25.552C29.8081 26.2503 30.1509 26.8917 30.6544 27.3952C31.1579 27.8987 31.7993 28.2416 32.4977 28.3805C33.196 28.5194 33.9198 28.4481 34.5776 28.1756C35.2355 27.9031 35.7977 27.4417 36.1933 26.8497C36.5888 26.2577 36.8 25.5616 36.8 24.8496C36.7989 23.8952 36.4193 22.9801 35.7444 22.3052C35.0695 21.6303 34.1544 21.2507 33.2 21.2496ZM33.2 26.0496C32.9626 26.0496 32.7306 25.9793 32.5333 25.8474C32.336 25.7155 32.1821 25.5281 32.0913 25.3089C32.0005 25.0896 31.9767 24.8483 32.023 24.6155C32.0693 24.3828 32.1836 24.1689 32.3514 24.0011C32.5193 23.8333 32.7331 23.719 32.9659 23.6727C33.1986 23.6264 33.4399 23.6502 33.6592 23.741C33.8785 23.8318 34.0659 23.9856 34.1977 24.1829C34.3296 24.3803 34.4 24.6123 34.4 24.8496C34.3996 25.1678 34.2731 25.4728 34.0481 25.6978C33.8232 25.9228 33.5181 26.0493 33.2 26.0496Z" fill="white"/>
<path d="M46 20.8152H45.6V20.4152C45.5972 17.9761 44.627 15.6377 42.9022 13.913C41.1775 12.1883 38.8391 11.2181 36.4 11.2152H26.4V6.99411C27.2007 6.71104 27.8755 6.15403 28.3052 5.42154C28.7348 4.68904 28.8918 3.82823 28.7482 2.99123C28.6045 2.15424 28.1697 1.39496 27.5204 0.847586C26.8711 0.300216 26.0492 0 25.2 0C24.3508 0 23.5289 0.300216 22.8796 0.847586C22.2303 1.39496 21.7955 2.15424 21.6518 2.99123C21.5082 3.82823 21.6651 4.68904 22.0948 5.42154C22.5245 6.15403 23.1993 6.71104 24 6.99411V11.2152H14C11.5609 11.2181 9.22247 12.1883 7.49775 13.913C5.77303 15.6377 4.80284 17.9761 4.8 20.4152V20.8152H4.4C3.23341 20.8164 2.11494 21.2804 1.29004 22.1053C0.465137 22.9302 0.00118599 24.0486 0 25.2152V31.6152C0.00118599 32.7818 0.465137 33.9003 1.29004 34.7252C2.11494 35.5501 3.23341 36.014 4.4 36.0152H4.8V36.4152C4.80284 38.8544 5.77303 41.1928 7.49775 42.9175C9.22247 44.6422 11.5609 45.6124 14 45.6152H20.6382L24.2781 49.9832C24.3907 50.1184 24.5317 50.2271 24.691 50.3018C24.8503 50.3764 25.0241 50.4151 25.2 50.4151C25.3759 50.4151 25.5497 50.3764 25.709 50.3018C25.8683 50.2271 26.0093 50.1184 26.1219 49.9832L29.7618 45.6152H36.4C38.8391 45.6124 41.1775 44.6422 42.9022 42.9175C44.627 41.1928 45.5972 38.8544 45.6 36.4152V36.0152H46C47.1666 36.014 48.2851 35.5501 49.11 34.7252C49.9349 33.9003 50.3988 32.7818 50.4 31.6152V25.2152C50.3988 24.0486 49.9349 22.9302 49.11 22.1053C48.2851 21.2804 47.1666 20.8164 46 20.8152ZM25.2 2.41523C25.4373 2.41523 25.6693 2.48561 25.8667 2.61747C26.064 2.74933 26.2178 2.93674 26.3087 3.15601C26.3995 3.37528 26.4232 3.61656 26.3769 3.84934C26.3306 4.08212 26.2164 4.29594 26.0485 4.46376C25.8807 4.63158 25.6669 4.74587 25.4341 4.79218C25.2013 4.83848 24.9601 4.81471 24.7408 4.72389C24.5215 4.63306 24.3341 4.47926 24.2022 4.28192C24.0704 4.08458 24 3.85257 24 3.61523C24.0003 3.29708 24.1269 2.99205 24.3518 2.76708C24.5768 2.54211 24.8818 2.41557 25.2 2.41523ZM4.4 33.6152C3.86971 33.6148 3.36127 33.4039 2.9863 33.0289C2.61133 32.654 2.40047 32.1455 2.4 31.6152V25.2152C2.40047 24.6849 2.61133 24.1765 2.9863 23.8015C3.36127 23.4266 3.86971 23.2157 4.4 23.2152H4.8V33.6152H4.4ZM43.2 36.4152C43.1979 38.2181 42.4808 39.9464 41.206 41.2212C39.9312 42.496 38.2028 43.2131 36.4 43.2152H29.2C29.024 43.2151 28.8502 43.2538 28.6909 43.3284C28.5315 43.4031 28.3906 43.512 28.2781 43.6472L25.2 47.341L22.1219 43.6472C22.0094 43.512 21.8685 43.4031 21.7091 43.3284C21.5498 43.2538 21.376 43.2151 21.2 43.2152H14C12.1972 43.2131 10.4688 42.496 9.19401 41.2212C7.91922 39.9464 7.20212 38.2181 7.2 36.4152V20.4152C7.20212 18.6124 7.91922 16.884 9.19401 15.6092C10.4688 14.3345 12.1972 13.6174 14 13.6152H36.4C38.2028 13.6174 39.9312 14.3345 41.206 15.6092C42.4808 16.884 43.1979 18.6124 43.2 20.4152V36.4152ZM48 31.6152C47.9995 32.1455 47.7887 32.654 47.4137 33.0289C47.0387 33.4039 46.5303 33.6148 46 33.6152H45.6V23.2152H46C46.5303 23.2157 47.0387 23.4266 47.4137 23.8015C47.7887 24.1765 47.9995 24.6849 48 25.2152V31.6152Z" fill="white"/>
<path d="M28.608 33.4072H21.792C21.4738 33.4072 21.1686 33.5337 20.9435 33.7587C20.7185 33.9837 20.592 34.289 20.592 34.6072C20.592 34.9255 20.7185 35.2307 20.9435 35.4558C21.1686 35.6808 21.4738 35.8072 21.792 35.8072H28.608C28.9263 35.8072 29.2315 35.6808 29.4566 35.4558C29.6816 35.2307 29.808 34.9255 29.808 34.6072C29.808 34.289 29.6816 33.9837 29.4566 33.7587C29.2315 33.5337 28.9263 33.4072 28.608 33.4072Z" fill="white"/>
</svg>
