<svg width="65" height="65" viewBox="0 0 65 65" fill="none" xmlns="http://www.w3.org/2000/svg">
<path d="M40.625 10.6641C36.5064 10.6677 32.4726 11.8345 28.9881 14.0303C25.5036 16.226 22.7102 19.3612 20.9295 23.075C18.7816 22.7092 16.5811 22.7933 14.4674 23.3219C12.3536 23.8505 10.3726 24.8122 8.64975 26.146C6.92688 27.4798 5.49965 29.1567 4.4584 31.0707C3.41715 32.9846 2.78454 35.0939 2.60062 37.2649C2.4167 39.436 2.68547 41.6216 3.38992 43.6834C4.09437 45.7452 5.21916 47.6384 6.69311 49.243C8.16705 50.8477 9.95805 52.1288 11.9528 53.0055C13.9475 53.8822 16.1024 54.3352 18.2813 54.3359H40.625C46.4163 54.3359 51.9703 52.0354 56.0653 47.9403C60.1604 43.8453 62.4609 38.2913 62.4609 32.5C62.4609 26.7087 60.1604 21.1547 56.0653 17.0597C51.9703 12.9646 46.4163 10.6641 40.625 10.6641ZM40.625 51.2891H18.2813C14.9143 51.2891 11.6852 49.9515 9.30432 47.5707C6.92349 45.1899 5.58595 41.9608 5.58595 38.5938C5.58595 35.2267 6.92349 31.9976 9.30432 29.6168C11.6852 27.236 14.9143 25.8984 18.2813 25.8984C18.7828 25.8988 19.2838 25.9285 19.7818 25.9873C19.122 28.0952 18.7872 30.2913 18.7891 32.5C18.7891 32.904 18.9496 33.2915 19.2353 33.5772C19.521 33.8629 19.9085 34.0234 20.3125 34.0234C20.7166 34.0234 21.104 33.8629 21.3897 33.5772C21.6754 33.2915 21.8359 32.904 21.8359 32.5C21.8359 28.7839 22.9379 25.1512 25.0025 22.0614C27.067 18.9715 30.0015 16.5633 33.4347 15.1412C36.868 13.7191 40.6458 13.347 44.2906 14.072C47.9353 14.7969 51.2832 16.5864 53.9109 19.2141C56.5386 21.8418 58.3281 25.1897 59.053 28.8344C59.778 32.4792 59.4059 36.257 57.9838 39.6903C56.5617 43.1235 54.1535 46.058 51.0636 48.1225C47.9738 50.1871 44.3411 51.2891 40.625 51.2891Z" fill="black"/>
</svg>
