<svg width="70" height="76" viewBox="0 0 70 76" fill="none" xmlns="http://www.w3.org/2000/svg">
<path d="M67.1425 17.2224L37.58 1.04697C36.7901 0.610523 35.9024 0.381592 35 0.381592C34.0976 0.381592 33.2099 0.610523 32.42 1.04697L2.8575 17.2291C2.01325 17.691 1.3085 18.3711 0.816854 19.1984C0.325204 20.0257 0.0646845 20.9698 0.0625 21.9322V54.0613C0.0646845 55.0236 0.325204 55.9678 0.816854 56.795C1.3085 57.6223 2.01325 58.3025 2.8575 58.7644L32.42 74.9465C33.2099 75.3829 34.0976 75.6119 35 75.6119C35.9024 75.6119 36.7901 75.3829 37.58 74.9465L67.1425 58.7644C67.9867 58.3025 68.6915 57.6223 69.1832 56.795C69.6748 55.9678 69.9353 55.0236 69.9375 54.0613V21.9356C69.9371 20.9715 69.6775 20.0253 69.1857 19.196C68.694 18.3668 67.9882 17.6851 67.1425 17.2224ZM35 5.75009L61.9892 20.5313L35 35.3126L8.01078 20.5313L35 5.75009ZM5.4375 25.2345L32.3125 39.9418V68.7619L5.4375 54.0646V25.2345ZM37.6875 68.7619V39.9553L64.5625 25.2345V54.0512L37.6875 68.7619Z" fill="white"/>
</svg>
