<svg width="45" height="36" viewBox="0 0 45 36" fill="none" xmlns="http://www.w3.org/2000/svg">
<g clip-path="url(#clip0_20_12)">
<path d="M31.8396 22.6676C31.8396 17.1191 27.278 12.6211 21.6509 12.6211H13.1604V22.6676H21.6509V35.2257H31.8396V22.6676Z" fill="#5B903A"/>
<path d="M0.42453 23.5048C0.424531 29.9781 5.74643 35.2257 12.3113 35.2257H19.1038V25.1792H12.3113C11.3735 25.1792 10.6132 24.4296 10.6132 23.5048V22.6676H0.42453V23.5048Z" fill="#5B903A"/>
<path d="M21.6509 0.0629539C34.3118 0.0629539 44.5755 10.1834 44.5755 22.6676V35.2257H34.3868V22.6676C34.3868 15.7319 28.6848 10.1095 21.6509 10.1095H12.3113C11.3735 10.1095 10.6132 10.8591 10.6132 11.7839V12.6211H0.42453V11.7839C0.424531 5.31059 5.74643 0.0629539 12.3113 0.0629539H21.6509Z" fill="#5B903A"/>
</g>
<defs>
<clipPath id="clip0_20_12">
<rect width="45" height="36" fill="white"/>
</clipPath>
</defs>
</svg>
