<svg width="86" height="62" viewBox="0 0 86 62" fill="none" xmlns="http://www.w3.org/2000/svg">
<path d="M55.0937 18.875C56.9541 18.875 58.7727 18.3233 60.3196 17.2898C61.8664 16.2562 63.072 14.7871 63.784 13.0684C64.4959 11.3496 64.6822 9.45832 64.3192 7.63369C63.9563 5.80905 63.0604 4.13302 61.745 2.81753C60.4295 1.50204 58.7534 0.606185 56.9288 0.243243C55.1042 -0.1197 53.2129 0.0665756 51.4941 0.778512C49.7753 1.49045 48.3063 2.69607 47.2727 4.24292C46.2391 5.78977 45.6875 7.60837 45.6875 9.46875C45.6875 11.9634 46.6785 14.356 48.4425 16.12C50.2065 17.884 52.599 18.875 55.0937 18.875ZM55.0937 5.4375C55.891 5.4375 56.6704 5.67393 57.3334 6.11689C57.9963 6.55985 58.513 7.18945 58.8181 7.92606C59.1232 8.66268 59.2031 9.47323 59.0475 10.2552C58.892 11.0372 58.508 11.7555 57.9442 12.3193C57.3805 12.8831 56.6622 13.267 55.8802 13.4225C55.0982 13.5781 54.2877 13.4983 53.551 13.1931C52.8144 12.888 52.1848 12.3713 51.7419 11.7084C51.2989 11.0455 51.0625 10.2661 51.0625 9.46875C51.0625 8.3996 51.4872 7.37424 52.2432 6.61823C52.9992 5.86222 54.0246 5.4375 55.0937 5.4375ZM85.6237 57.8169L67.295 26.8838C66.8223 26.0779 66.1461 25.4105 65.3343 24.9482C64.5224 24.486 63.6033 24.2452 62.6691 24.25C61.7353 24.2451 60.8167 24.4859 60.0054 24.9482C59.194 25.4105 58.5185 26.078 58.0466 26.8838L49.2585 41.7188L34.1951 16.1539C33.7204 15.3472 33.0433 14.6784 32.2308 14.2138C31.4183 13.7491 30.4985 13.5047 29.5625 13.5047C28.6265 13.5047 27.7067 13.7491 26.8942 14.2138C26.0817 14.6784 25.4046 15.3472 24.9299 16.1539L0.372864 57.8236C0.132491 58.2317 0.00424336 58.6961 0.00111162 59.1697C-0.00202012 59.6434 0.120075 60.1094 0.35503 60.5207C0.589986 60.9319 0.929455 61.2738 1.33905 61.5116C1.74865 61.7495 2.21383 61.8748 2.68747 61.875H83.3125C83.7868 61.8749 84.2527 61.7493 84.6628 61.5109C85.0729 61.2724 85.4126 60.9297 85.6473 60.5175C85.8821 60.1054 86.0036 59.6384 85.9994 59.164C85.9953 58.6897 85.8657 58.2249 85.6237 57.8169ZM29.5625 18.875L37.4805 32.3125H21.6444L29.5625 18.875ZM7.3906 56.5L18.4765 37.6875H40.6484L46.9439 48.3703L51.7344 56.5H7.3906ZM57.9727 56.5L52.376 46.9997L62.6691 29.625L78.6094 56.5H57.9727Z" fill="white"/>
</svg>
