<svg width="50" height="36" viewBox="0 0 50 36" fill="none" xmlns="http://www.w3.org/2000/svg">
<path d="M27.8125 3.875V24.5C27.8156 27.4827 29.0019 30.3424 31.111 32.4515C33.2201 34.5606 36.0798 35.7469 39.0625 35.75C39.5598 35.75 40.0367 35.5525 40.3883 35.2008C40.74 34.8492 40.9375 34.3723 40.9375 33.875C40.9375 33.3777 40.74 32.9008 40.3883 32.5492C40.0367 32.1975 39.5598 32 39.0625 32C37.0734 32 35.1657 31.2098 33.7592 29.8033C32.3527 28.3968 31.5625 26.4891 31.5625 24.5V22.625H45.625C46.6196 22.625 47.5734 22.2299 48.2767 21.5266C48.9799 20.8234 49.375 19.8696 49.375 18.875V3.875C49.375 2.88044 48.9799 1.92661 48.2767 1.22335C47.5734 0.520088 46.6196 0.125 45.625 0.125H31.5625C30.5679 0.125 29.6141 0.520088 28.9109 1.22335C28.2076 1.92661 27.8125 2.88044 27.8125 3.875ZM4.375 0.125H18.4375C19.4321 0.125 20.3859 0.520088 21.0891 1.22335C21.7924 1.92661 22.1875 2.88044 22.1875 3.875V18.875C22.1875 19.8696 21.7924 20.8234 21.0891 21.5266C20.3859 22.2299 19.4321 22.625 18.4375 22.625H4.375V24.5C4.375 26.4891 5.16518 28.3968 6.5717 29.8033C7.97822 31.2098 9.88588 32 11.875 32C12.3723 32 12.8492 32.1975 13.2008 32.5492C13.5525 32.9008 13.75 33.3777 13.75 33.875C13.75 34.3723 13.5525 34.8492 13.2008 35.2008C12.8492 35.5525 12.3723 35.75 11.875 35.75C8.89227 35.7469 6.03259 34.5606 3.92347 32.4515C1.81436 30.3424 0.628101 27.4827 0.625 24.5V3.875C0.625 2.88044 1.02009 1.92661 1.72335 1.22335C2.42661 0.520088 3.38044 0.125 4.375 0.125Z" fill="white"/>
</svg>
