<svg width="16" height="11" viewBox="0 0 16 11" fill="none" xmlns="http://www.w3.org/2000/svg">
<path d="M15.875 0.9375V5.4375C15.875 5.58668 15.8157 5.72976 15.7103 5.83525C15.6048 5.94074 15.4617 6 15.3125 6C15.1633 6 15.0202 5.94074 14.9148 5.83525C14.8093 5.72976 14.75 5.58668 14.75 5.4375V2.29523L8.96048 8.08547C8.90824 8.13777 8.8462 8.17926 8.77791 8.20757C8.70963 8.23587 8.63643 8.25044 8.56251 8.25044C8.48859 8.25044 8.41539 8.23587 8.3471 8.20757C8.27882 8.17926 8.21678 8.13777 8.16454 8.08547L5.75001 5.67023L1.08548 10.3355C0.979928 10.441 0.836775 10.5003 0.687508 10.5003C0.53824 10.5003 0.395087 10.441 0.289539 10.3355C0.183991 10.2299 0.124695 10.0868 0.124695 9.9375C0.124695 9.78823 0.183991 9.64508 0.289539 9.53953L5.35204 4.47703C5.40428 4.42473 5.46632 4.38324 5.5346 4.35494C5.60289 4.32663 5.67609 4.31206 5.75001 4.31206C5.82393 4.31206 5.89713 4.32663 5.96541 4.35494C6.0337 4.38324 6.09574 4.42473 6.14798 4.47703L8.56251 6.89227L13.9548 1.5H10.8125C10.6633 1.5 10.5202 1.44074 10.4148 1.33525C10.3093 1.22976 10.25 1.08668 10.25 0.9375C10.25 0.788316 10.3093 0.645242 10.4148 0.539753C10.5202 0.434263 10.6633 0.375 10.8125 0.375H15.3125C15.4617 0.375 15.6048 0.434263 15.7103 0.539753C15.8157 0.645242 15.875 0.788316 15.875 0.9375Z" fill="#5B903A"/>
</svg>
